<mxfile>
    <diagram id="cWmDBsZE6_aUvBE6QZlk" name="Page-1">
        <mxGraphModel dx="756" dy="1843" grid="1" gridSize="10" guides="1" tooltips="1" connect="1" arrows="1" fold="1" page="1" pageScale="1" pageWidth="827" pageHeight="1169" math="0" shadow="0">
            <root>
                <mxCell id="0"/>
                <mxCell id="1" parent="0"/>
                <mxCell id="4" value="" style="edgeStyle=orthogonalEdgeStyle;rounded=0;orthogonalLoop=1;jettySize=auto;html=1;" parent="1" source="2" target="3" edge="1">
                    <mxGeometry relative="1" as="geometry"/>
                </mxCell>
                <mxCell id="2" value="Fail LogIn Attempt" style="rounded=1;whiteSpace=wrap;html=1;fontStyle=1" parent="1" vertex="1">
                    <mxGeometry x="50" y="90" width="120" height="60" as="geometry"/>
                </mxCell>
                <mxCell id="6" value="" style="edgeStyle=orthogonalEdgeStyle;rounded=0;orthogonalLoop=1;jettySize=auto;html=1;" parent="1" source="3" target="5" edge="1">
                    <mxGeometry relative="1" as="geometry">
                        <Array as="points">
                            <mxPoint x="420" y="120"/>
                            <mxPoint x="420" y="70"/>
                        </Array>
                    </mxGeometry>
                </mxCell>
                <mxCell id="3" value="Attempt number Verify" style="rhombus;whiteSpace=wrap;html=1;" parent="1" vertex="1">
                    <mxGeometry x="200" y="80" width="200" height="80" as="geometry"/>
                </mxCell>
                <mxCell id="5" value="increment Attempt number and Alert user account for email" style="shape=parallelogram;perimeter=parallelogramPerimeter;whiteSpace=wrap;html=1;fixedSize=1;" parent="1" vertex="1">
                    <mxGeometry x="530" y="40" width="260" height="60" as="geometry"/>
                </mxCell>
                <mxCell id="7" value="Attempt 1" style="text;html=1;align=center;verticalAlign=middle;resizable=0;points=[];autosize=1;" parent="1" vertex="1">
                    <mxGeometry x="440" y="50" width="70" height="20" as="geometry"/>
                </mxCell>
                <mxCell id="8" value="" style="edgeStyle=orthogonalEdgeStyle;rounded=0;orthogonalLoop=1;jettySize=auto;html=1;" parent="1" source="3" target="9" edge="1">
                    <mxGeometry relative="1" as="geometry">
                        <mxPoint x="430" y="220" as="sourcePoint"/>
                        <Array as="points">
                            <mxPoint x="420" y="120"/>
                            <mxPoint x="420" y="170"/>
                        </Array>
                    </mxGeometry>
                </mxCell>
                <mxCell id="9" value="increment Attempt number and create a 1 minute counter" style="shape=parallelogram;perimeter=parallelogramPerimeter;whiteSpace=wrap;html=1;fixedSize=1;" parent="1" vertex="1">
                    <mxGeometry x="530" y="140" width="260" height="60" as="geometry"/>
                </mxCell>
                <mxCell id="10" value="Attempt 2" style="text;html=1;align=center;verticalAlign=middle;resizable=0;points=[];autosize=1;" parent="1" vertex="1">
                    <mxGeometry x="440" y="150" width="70" height="20" as="geometry"/>
                </mxCell>
                <mxCell id="11" value="" style="edgeStyle=orthogonalEdgeStyle;rounded=0;orthogonalLoop=1;jettySize=auto;html=1;exitX=1;exitY=0.5;exitDx=0;exitDy=0;entryX=0;entryY=0.5;entryDx=0;entryDy=0;" parent="1" source="3" target="12" edge="1">
                    <mxGeometry relative="1" as="geometry">
                        <mxPoint x="440" y="230" as="sourcePoint"/>
                        <Array as="points">
                            <mxPoint x="420" y="120"/>
                            <mxPoint x="420" y="260"/>
                        </Array>
                    </mxGeometry>
                </mxCell>
                <mxCell id="12" value="increment Attempt number and block account for 24 hours" style="shape=parallelogram;perimeter=parallelogramPerimeter;whiteSpace=wrap;html=1;fixedSize=1;" parent="1" vertex="1">
                    <mxGeometry x="530" y="230" width="240" height="60" as="geometry"/>
                </mxCell>
                <mxCell id="13" value="Attempt 2" style="text;html=1;align=center;verticalAlign=middle;resizable=0;points=[];autosize=1;" parent="1" vertex="1">
                    <mxGeometry x="440" y="240" width="70" height="20" as="geometry"/>
                </mxCell>
                <mxCell id="27" value="" style="edgeStyle=orthogonalEdgeStyle;rounded=0;orthogonalLoop=1;jettySize=auto;html=1;" parent="1" source="14" target="26" edge="1">
                    <mxGeometry relative="1" as="geometry"/>
                </mxCell>
                <mxCell id="14" value="Sucess LogIn Attempt" style="rounded=1;whiteSpace=wrap;html=1;fontStyle=1" parent="1" vertex="1">
                    <mxGeometry x="14" y="-210" width="120" height="60" as="geometry"/>
                </mxCell>
                <mxCell id="17" value="&lt;span style=&quot;color: rgb(248 , 248 , 242) ; background-color: rgb(40 , 42 , 54)&quot;&gt;&lt;font style=&quot;font-size: 12px&quot;&gt;the&amp;nbsp;attempt&amp;nbsp;counter&amp;nbsp;must&amp;nbsp;be&amp;nbsp;reset&lt;/font&gt;&lt;/span&gt;" style="shape=parallelogram;perimeter=parallelogramPerimeter;whiteSpace=wrap;html=1;fixedSize=1;" parent="1" vertex="1">
                    <mxGeometry x="638" y="-280" width="210" height="60" as="geometry"/>
                </mxCell>
                <mxCell id="21" value="&lt;span style=&quot;text-align: left ; line-height: 120%&quot;&gt;&lt;font style=&quot;font-size: 12px&quot; color=&quot;#ffffff&quot;&gt;create access session and register ip, browser and user actions&lt;/font&gt;&lt;/span&gt;" style="shape=parallelogram;perimeter=parallelogramPerimeter;whiteSpace=wrap;html=1;fixedSize=1;" parent="1" vertex="1">
                    <mxGeometry x="630" y="-190" width="246" height="60" as="geometry"/>
                </mxCell>
                <mxCell id="29" style="edgeStyle=orthogonalEdgeStyle;rounded=0;orthogonalLoop=1;jettySize=auto;html=1;entryX=0;entryY=0.5;entryDx=0;entryDy=0;" parent="1" source="26" target="17" edge="1">
                    <mxGeometry relative="1" as="geometry">
                        <Array as="points">
                            <mxPoint x="530" y="-180"/>
                            <mxPoint x="530" y="-250"/>
                        </Array>
                    </mxGeometry>
                </mxCell>
                <mxCell id="30" style="edgeStyle=orthogonalEdgeStyle;rounded=0;orthogonalLoop=1;jettySize=auto;html=1;entryX=0;entryY=0.5;entryDx=0;entryDy=0;" parent="1" source="26" target="21" edge="1">
                    <mxGeometry relative="1" as="geometry"/>
                </mxCell>
                <mxCell id="33" style="edgeStyle=orthogonalEdgeStyle;rounded=0;orthogonalLoop=1;jettySize=auto;html=1;entryX=0;entryY=0.5;entryDx=0;entryDy=0;" parent="1" source="26" target="32" edge="1">
                    <mxGeometry relative="1" as="geometry">
                        <Array as="points">
                            <mxPoint x="530" y="-180"/>
                            <mxPoint x="530" y="-70"/>
                        </Array>
                    </mxGeometry>
                </mxCell>
                <mxCell id="36" value="" style="edgeStyle=orthogonalEdgeStyle;rounded=0;orthogonalLoop=1;jettySize=auto;html=1;" edge="1" parent="1" source="26" target="35">
                    <mxGeometry relative="1" as="geometry"/>
                </mxCell>
                <mxCell id="26" value="&lt;span style=&quot;color: rgb(255 , 255 , 255)&quot;&gt;check the number of simultaneous sessions allowed for the user&lt;/span&gt;" style="rhombus;whiteSpace=wrap;html=1;" parent="1" vertex="1">
                    <mxGeometry x="200" y="-240" width="230" height="120" as="geometry"/>
                </mxCell>
                <mxCell id="32" value="return jwt with session_id as a payload" style="shape=parallelogram;perimeter=parallelogramPerimeter;whiteSpace=wrap;html=1;fixedSize=1;" parent="1" vertex="1">
                    <mxGeometry x="610" y="-100" width="260" height="60" as="geometry"/>
                </mxCell>
                <mxCell id="34" value="OK" style="text;html=1;align=center;verticalAlign=middle;resizable=0;points=[];autosize=1;" vertex="1" parent="1">
                    <mxGeometry x="460" y="-200" width="30" height="20" as="geometry"/>
                </mxCell>
                <mxCell id="38" style="edgeStyle=orthogonalEdgeStyle;rounded=0;orthogonalLoop=1;jettySize=auto;html=1;" edge="1" parent="1" source="35" target="26">
                    <mxGeometry relative="1" as="geometry">
                        <mxPoint x="440" y="-200" as="targetPoint"/>
                    </mxGeometry>
                </mxCell>
                <mxCell id="35" value="&lt;div style=&quot;color: rgb(248 , 248 , 242) ; line-height: 19px&quot;&gt;the&amp;nbsp;user&amp;nbsp;will&amp;nbsp;be&amp;nbsp;given&amp;nbsp;the&amp;nbsp;option&amp;nbsp;&lt;/div&gt;&lt;div style=&quot;color: rgb(248 , 248 , 242) ; line-height: 19px&quot;&gt;to&amp;nbsp;drop&amp;nbsp;other&amp;nbsp;sessions&amp;nbsp;that&amp;nbsp;belong&amp;nbsp;to&amp;nbsp;him&lt;br&gt;&lt;/div&gt;" style="shape=step;perimeter=stepPerimeter;html=1;fixedSize=1;align=center;whiteSpace=wrap;" vertex="1" parent="1">
                    <mxGeometry x="340" y="-410" width="270" height="80" as="geometry"/>
                </mxCell>
                <mxCell id="37" value="Fail" style="text;html=1;align=center;verticalAlign=middle;resizable=0;points=[];autosize=1;" vertex="1" parent="1">
                    <mxGeometry x="340" y="-310" width="30" height="20" as="geometry"/>
                </mxCell>
            </root>
        </mxGraphModel>
    </diagram>
</mxfile>